# xmcd CD database file
#
# Track frame offsets:
#	150
#	26275
#	38866
#	61399
#	78974
#	101050
#	121109
#	134915
#	153992
#	169901
#	202355
#
# Disc length: 3149 seconds
#
# Revision: 2
# Processed by: cddbd v1.5.2PL0 Copyright (c) Steve Scherf et al.
# Submitted via: CDex 1.50
#
DISCID=970c4b0b
DTITLE=王俊傑 - 顏色- 俊傑的印象音符
DYEAR=2005
DGENRE=New Age
TTITLE0=俊傑日記
TTITLE1=離開台北去旅行
TTITLE2=觀音山下
TTITLE3=某日
TTITLE4=那個青春期
TTITLE5=與後
TTITLE6=我的盲人兄弟
TTITLE7=門口埕的祖孫對話
TTITLE8=冬山河
TTITLE9=我的彩色冥想
TTITLE10=，：！。 逗號 冒號 驚嘆號 句號
EXTD=YEAR: 2005
EXTT0=
EXTT1=
EXTT2=
EXTT3=
EXTT4=
EXTT5=
EXTT6=
EXTT7=
EXTT8=
EXTT9=
EXTT10=
PLAYORDER=
